<svg width="196" height="237" viewBox="0 0 196 237" fill="none" xmlns="http://www.w3.org/2000/svg">
<path d="M0 0H98H196V237H0V0Z" fill="#09082B"/>
<path d="M8 24C8 15.7157 14.7157 9 23 9H174C182.284 9 189 15.7157 189 24V24C189 32.2843 182.284 39 174 39H23C14.7157 39 8 32.2843 8 24V24Z" fill="#A48989"/>
<path d="M23 228C14.7157 228 8 221.284 8 213V213C8 204.716 14.7157 198 23 198H98.5L174 198C182.284 198 189 204.716 189 213V213C189 221.284 182.284 228 174 228L98.5 228H23Z" fill="#A48989"/>
<path d="M35.8505 161.337C30.9625 154.648 32.4221 145.263 39.1107 140.375L138.351 67.8505C145.04 62.9625 154.424 64.4221 159.312 71.1107V71.1107C164.2 77.7992 162.741 87.1839 156.052 92.0719L56.8117 164.597C50.1231 169.485 40.7385 168.025 35.8505 161.337V161.337Z" fill="#A48989"/>
<path d="M189 59C189 67.2843 182.284 74 174 74C165.716 74 159 67.2843 159 59C159 50.7157 165.716 44 174 44C182.284 44 189 50.7157 189 59Z" fill="#41B7B7"/>
<circle cx="24" cy="177" r="15" fill="#41B7B7"/>
</svg>
